{
.appVersion = "3337";
.formatVersion = 3;
date = "2025-02-09 20:11:06 +0000";
familyName = Castello;
fontMaster = (
{
iconName = Bold;
id = m01;
metricValues = (
{
over = 16;
pos = 800;
},
{
over = 16;
pos = 700;
},
{
over = 16;
pos = 500;
},
{
over = -16;
},
{
over = -16;
pos = -200;
},
{
}
);
name = Bold;
userData = {
GSOffsetHorizontal = -25;
GSOffsetKeepCompatible = 1;
GSOffsetVertical = -15;
};
}
);
glyphs = (
{
glyphname = A;
lastChange = "2025-02-16 21:23:13 +0000";
layers = (
{
background = {
shapes = (
{
closed = 1;
nodes = (
(5,0,l),
(145,0,l),
(259,700,l),
(129,700,l)
);
},
{
closed = 1;
nodes = (
(160,145,l),
(300,145,l),
(300,255,l),
(160,255,l)
);
},
{
closed = 1;
nodes = (
(201,700,l),
(315,0,l),
(455,0,l),
(331,700,l)
);
}
);
};
backgroundImage = {
crop = (9.091,306.591,136.364,227.273);
imagePath = "png/ABCDE.png";
locked = 1;
pos = (-110,-1549);
scale = (4.4,4.4);
};
layerId = m01;
shapes = (
{
closed = 1;
nodes = (
(5,0,l),
(145,0,l),
(259,700,l),
(129,700,l)
);
},
{
closed = 1;
nodes = (
(160,145,l),
(300,145,l),
(300,255,l),
(160,255,l)
);
},
{
closed = 1;
nodes = (
(201,700,l),
(315,0,l),
(455,0,l),
(331,700,l)
);
}
);
width = 460;
}
);
metricLeft = "=O*.25";
metricRight = "=O*.25";
unicode = 65;
},
{
glyphname = B;
lastChange = "2025-02-16 21:24:30 +0000";
layers = (
{
anchors = (
{
name = bottom;
pos = (223,0);
},
{
name = center;
pos = (73,175);
},
{
name = top;
pos = (223,700);
}
);
background = {
hints = (
{
name = _corner.BASE;
scale = (1.08,1.08);
type = Corner;
},
{
name = _corner.BASE;
scale = (1.08,1.08);
type = Corner;
},
{
name = _corner.BASE;
scale = (0.3,0.3);
type = Corner;
},
{
name = _corner.BASE;
options = 2;
scale = (-0.3,0.3);
type = Corner;
},
{
name = _corner.BASE;
origin = (0,1);
scale = (0.9,0.9);
type = Corner;
},
{
name = _corner.BASE;
origin = (0,2);
scale = (1.08,1.08);
type = Corner;
},
{
name = _corner.BASE;
origin = (1,0);
scale = (0.3,0.3);
type = Corner;
},
{
name = _corner.BASE;
options = 2;
origin = (1,3);
scale = (-0.3,0.3);
type = Corner;
},
{
name = _corner.BASE;
origin = (2,1);
scale = (1.08,1.08);
type = Corner;
},
{
name = _corner.BASE;
origin = (2,2);
scale = (0.9,0.9);
type = Corner;
},
{
name = _corner.BASE;
origin = (3,0);
scale = (0.3,0.3);
type = Corner;
},
{
name = _corner.BASE;
options = 2;
origin = (3,3);
scale = (-0.3,0.3);
type = Corner;
}
);
shapes = (
{
closed = 1;
nodes = (
(25,322,l),
(425,322,l),
(425,700,l),
(25,700,l)
);
},
{
closed = 1;
nodes = (
(275,405,l),
(175,405,l),
(175,590,l),
(275,590,l)
);
},
{
closed = 1;
nodes = (
(25,0,l),
(425,0,l),
(425,378,l),
(25,378,l)
);
},
{
closed = 1;
nodes = (
(275,110,l),
(175,110,l),
(175,295,l),
(275,295,l)
);
}
);
};
backgroundImage = {
crop = (134.091,306.591,136.364,227.273);
imagePath = "png/ABCDE.png";
pos = (-667,-1549);
scale = (4.4,4.4);
};
hints = (
{
name = _corner.ROUND;
origin = (0,1);
scale = (0.8,0.8);
type = Corner;
},
{
name = _corner.ROUND;
origin = (0,2);
scale = (1.08,1.08);
type = Corner;
},
{
name = _corner.ROUND;
origin = (1,0);
scale = (0.3,0.3);
type = Corner;
},
{
name = _corner.ROUND;
options = 2;
origin = (1,3);
scale = (-0.3,0.3);
type = Corner;
},
{
name = _corner.ROUND;
origin = (2,1);
scale = (1.08,1.08);
type = Corner;
},
{
name = _corner.ROUND;
origin = (2,2);
scale = (0.8,0.8);
type = Corner;
},
{
name = _corner.ROUND;
origin = (3,0);
scale = (0.3,0.3);
type = Corner;
},
{
name = _corner.ROUND;
options = 2;
origin = (3,3);
scale = (-0.3,0.3);
type = Corner;
}
);
layerId = m01;
shapes = (
{
closed = 1;
nodes = (
(25,340,l),
(425,340,l),
(425,700,l),
(25,700,l)
);
},
{
closed = 1;
nodes = (
(275,405,l),
(175,405,l),
(175,590,l),
(275,590,l)
);
},
{
closed = 1;
nodes = (
(25,0,l),
(425,0,l),
(425,360,l),
(25,360,l)
);
},
{
closed = 1;
nodes = (
(275,110,l),
(175,110,l),
(175,295,l),
(275,295,l)
);
}
);
width = 445;
}
);
metricLeft = H;
metricRight = O;
unicode = 66;
},
{
glyphname = C;
lastChange = "2025-02-16 21:08:42 +0000";
layers = (
{
backgroundImage = {
crop = (254.545,306.591,136.364,227.273);
imagePath = "png/ABCDE.png";
locked = 1;
pos = (-1199,-1550);
scale = (4.4,4.4);
};
hints = (
{
name = _corner.ROUND;
origin = (0,0);
type = Corner;
},
{
name = _corner.ROUND;
origin = (0,1);
scale = (1.08,1.08);
type = Corner;
},
{
name = _corner.ROUND;
origin = (0,2);
scale = (1.08,1.08);
type = Corner;
},
{
name = _corner.ROUND;
origin = (0,3);
type = Corner;
},
{
name = _corner.ROUND;
origin = (1,0);
scale = (0.3,0.3);
type = Corner;
},
{
name = _corner.ROUND;
options = 2;
origin = (1,1);
scale = (-0.3,0.3);
type = Corner;
},
{
name = _corner.ROUND;
origin = (1,2);
scale = (0.3,0.3);
type = Corner;
},
{
name = _corner.ROUND;
options = 2;
origin = (1,3);
scale = (-0.3,0.3);
type = Corner;
}
);
layerId = m01;
shapes = (
{
closed = 1;
nodes = (
(20,0,l),
(420,0,l),
(420,700,l),
(20,700,l)
);
},
{
closed = 1;
nodes = (
(270,110,l),
(170,110,l),
(170,590,l),
(270,590,l)
);
},
{
closed = 1;
nodes = (
(420,445,l),
(420,255,l),
(270,255,l),
(270,445,l)
);
}
);
width = 435;
}
);
metricLeft = O;
metricRight = "=O*.75";
unicode = 67;
},
{
glyphname = D;
lastChange = "2025-02-13 20:29:10 +0000";
layers = (
{
background = {
shapes = (
{
closed = 1;
nodes = (
(425,140,ls),
(425,63,o),
(362,0,o),
(285,0,cs),
(25,0,l),
(25,700,l),
(285,700,ls),
(362,700,o),
(425,637,o),
(425,560,cs)
);
},
{
closed = 1;
nodes = (
(275,530,ls),
(275,563,o),
(258,580,o),
(225,580,cs),
(175,580,l),
(175,120,l),
(225,120,ls),
(258,120,o),
(275,137,o),
(275,170,cs)
);
}
);
};
backgroundImage = {
crop = (372.727,306.591,136.364,227.273);
imagePath = "png/ABCDE.png";
locked = 1;
pos = (-1717,-1549);
scale = (4.4,4.4);
};
hints = (
{
name = _corner.ROUND;
origin = (0,1);
scale = (1.08,1.08);
type = Corner;
},
{
name = _corner.ROUND;
origin = (0,2);
scale = (1.08,1.08);
type = Corner;
},
{
name = _corner.ROUND;
origin = (1,0);
scale = (0.3,0.3);
type = Corner;
},
{
name = _corner.ROUND;
options = 2;
origin = (1,3);
scale = (-0.3,0.3);
type = Corner;
}
);
layerId = m01;
shapes = (
{
closed = 1;
nodes = (
(25,0,l),
(425,0,l),
(425,700,l),
(25,700,l)
);
},
{
closed = 1;
nodes = (
(275,110,l),
(175,110,l),
(175,590,l),
(275,590,l)
);
}
);
width = 445;
}
);
metricLeft = H;
metricRight = O;
unicode = 68;
},
{
glyphname = E;
lastChange = "2025-02-13 20:29:10 +0000";
layers = (
{
background = {
shapes = (
{
closed = 1;
nodes = (
(25,0,l),
(175,0,l),
(175,700,l),
(25,700,l)
);
},
{
closed = 1;
nodes = (
(175,295,l),
(315,295,l),
(315,405,l),
(175,405,l)
);
},
{
closed = 1;
nodes = (
(175,590,l),
(315,590,l),
(315,700,l),
(175,700,l)
);
},
{
closed = 1;
nodes = (
(175,0,l),
(315,0,l),
(315,110,l),
(175,110,l)
);
}
);
};
backgroundImage = {
crop = (481.818,306.591,112.182,227.273);
imagePath = "png/ABCDE.png";
locked = 1;
pos = (-2249,-1549);
scale = (4.4,4.4);
};
layerId = m01;
shapes = (
{
closed = 1;
nodes = (
(25,0,l),
(175,0,l),
(175,700,l),
(25,700,l)
);
},
{
closed = 1;
nodes = (
(175,295,l),
(315,295,l),
(315,405,l),
(175,405,l)
);
},
{
closed = 1;
nodes = (
(175,590,l),
(315,590,l),
(315,700,l),
(175,700,l)
);
},
{
closed = 1;
nodes = (
(175,0,l),
(315,0,l),
(315,110,l),
(175,110,l)
);
}
);
width = 335;
}
);
metricLeft = H;
metricRight = O;
unicode = 69;
},
{
glyphname = F;
lastChange = "2025-02-13 20:29:10 +0000";
layers = (
{
backgroundImage = {
crop = (9.024,283.902,146.341,243.902);
imagePath = "png/FGHIJ.png";
pos = (-166,-1364);
scale = (4.1,4.1);
};
layerId = m01;
shapes = (
{
closed = 1;
nodes = (
(25,0,l),
(175,0,l),
(175,700,l),
(25,700,l)
);
},
{
closed = 1;
nodes = (
(175,295,l),
(315,295,l),
(315,405,l),
(175,405,l)
);
},
{
closed = 1;
nodes = (
(175,590,l),
(315,590,l),
(315,700,l),
(175,700,l)
);
}
);
width = 335;
}
);
metricLeft = H;
metricRight = O;
unicode = 70;
},
{
glyphname = G;
lastChange = "2025-02-13 20:29:10 +0000";
layers = (
{
background = {
hints = (
{
name = _corner.BASE;
origin = (0,0);
type = Corner;
},
{
name = _corner.BASE;
origin = (0,1);
scale = (1.08,1.08);
type = Corner;
},
{
name = _corner.BASE;
origin = (0,2);
scale = (1.08,1.08);
type = Corner;
},
{
name = _corner.BASE;
origin = (0,3);
type = Corner;
},
{
name = _corner.BASE;
origin = (1,0);
scale = (0.3,0.3);
type = Corner;
},
{
name = _corner.BASE;
options = 2;
origin = (1,1);
scale = (-0.3,0.3);
type = Corner;
},
{
name = _corner.BASE;
origin = (1,2);
scale = (0.3,0.3);
type = Corner;
},
{
name = _corner.BASE;
options = 2;
origin = (1,3);
scale = (-0.3,0.3);
type = Corner;
}
);
shapes = (
{
closed = 1;
nodes = (
(20,0,l),
(420,0,l),
(420,700,l),
(20,700,l)
);
},
{
closed = 1;
nodes = (
(270,110,l),
(170,110,l),
(170,590,l),
(270,590,l)
);
},
{
closed = 1;
nodes = (
(420,445,l),
(420,255,l),
(270,255,l),
(270,445,l)
);
},
{
closed = 1;
nodes = (
(270,0,l),
(420,0,l),
(420,300,l),
(270,300,l)
);
}
);
};
backgroundImage = {
crop = (117.561,283.902,146.341,243.902);
imagePath = "png/FGHIJ.png";
locked = 1;
pos = (-564,-1364);
scale = (4.1,4.1);
};
hints = (
{
name = _corner.ROUND;
origin = (0,0);
type = Corner;
},
{
name = _corner.ROUND;
origin = (0,1);
scale = (1.08,1.08);
type = Corner;
},
{
name = _corner.ROUND;
origin = (0,2);
scale = (1.08,1.08);
type = Corner;
},
{
name = _corner.ROUND;
origin = (0,3);
type = Corner;
},
{
name = _corner.ROUND;
origin = (1,0);
scale = (0.3,0.3);
type = Corner;
},
{
name = _corner.ROUND;
options = 2;
origin = (1,1);
scale = (-0.3,0.3);
type = Corner;
},
{
name = _corner.ROUND;
origin = (1,2);
scale = (0.3,0.3);
type = Corner;
},
{
name = _corner.ROUND;
options = 2;
origin = (1,3);
scale = (-0.3,0.3);
type = Corner;
}
);
layerId = m01;
shapes = (
{
closed = 1;
nodes = (
(20,0,l),
(420,0,l),
(420,700,l),
(20,700,l)
);
},
{
closed = 1;
nodes = (
(270,110,l),
(170,110,l),
(170,590,l),
(270,590,l)
);
},
{
closed = 1;
nodes = (
(420,445,l),
(420,255,l),
(270,255,l),
(270,445,l)
);
},
{
closed = 1;
nodes = (
(270,0,l),
(420,0,l),
(420,300,l),
(270,300,l)
);
}
);
width = 440;
}
);
metricLeft = O;
metricRight = O;
unicode = 71;
},
{
glyphname = H;
lastChange = "2025-02-16 21:26:52 +0000";
layers = (
{
backgroundImage = {
crop = (240.732,283.902,146.341,243.902);
imagePath = "png/FGHIJ.png";
locked = 1;
pos = (-1012,-1364);
scale = (4.1,4.1);
};
layerId = m01;
shapes = (
{
closed = 1;
nodes = (
(25,0,l),
(175,0,l),
(175,700,l),
(25,700,l)
);
},
{
closed = 1;
nodes = (
(170,295,l),
(280,295,l),
(280,405,l),
(170,405,l)
);
},
{
closed = 1;
nodes = (
(275,0,l),
(425,0,l),
(425,700,l),
(275,700,l)
);
}
);
width = 450;
}
);
unicode = 72;
},
{
glyphname = I;
lastChange = "2025-02-13 20:29:10 +0000";
layers = (
{
backgroundImage = {
crop = (344.878,283.902,146.341,243.902);
imagePath = "png/FGHIJ.png";
locked = 1;
pos = (-1464,-1364);
scale = (4.1,4.1);
};
layerId = m01;
shapes = (
{
closed = 1;
nodes = (
(25,0,l),
(175,0,l),
(175,700,l),
(25,700,l)
);
}
);
width = 200;
}
);
metricLeft = H;
metricRight = H;
unicode = 73;
},
{
glyphname = J;
lastChange = "2025-02-13 20:29:10 +0000";
layers = (
{
background = {
hints = (
{
name = _corner.ROUND;
origin = (0,0);
type = Corner;
},
{
name = _corner.ROUND;
origin = (0,1);
scale = (1.08,1.08);
type = Corner;
},
{
name = _corner.ROUND;
origin = (1,0);
scale = (0.3,0.3);
type = Corner;
},
{
name = _corner.ROUND;
options = 2;
origin = (1,1);
scale = (-0.3,0.3);
type = Corner;
}
);
shapes = (
{
closed = 1;
nodes = (
(15,0,l),
(415,0,l),
(415,700,l),
(15,700,l)
);
},
{
closed = 1;
nodes = (
(265,110,l),
(165,110,l),
(165,700,l),
(265,700,l)
);
},
{
closed = 1;
nodes = (
(165,700,l),
(165,255,l),
(15,255,l),
(15,700,l)
);
}
);
};
backgroundImage = {
crop = (439.268,283.902,146.341,243.902);
imagePath = "png/FGHIJ.png";
locked = 1;
pos = (-1888,-1364);
scale = (4.1,4.1);
};
hints = (
{
name = _corner.ROUND;
origin = (0,0);
type = Corner;
},
{
name = _corner.ROUND;
origin = (0,1);
scale = (1.08,1.08);
type = Corner;
},
{
name = _corner.ROUND;
origin = (1,0);
scale = (0.3,0.3);
type = Corner;
},
{
name = _corner.ROUND;
options = 2;
origin = (1,1);
scale = (-0.3,0.3);
type = Corner;
}
);
layerId = m01;
shapes = (
{
closed = 1;
nodes = (
(15,0,l),
(415,0,l),
(415,700,l),
(15,700,l)
);
},
{
closed = 1;
nodes = (
(265,110,l),
(165,110,l),
(165,700,l),
(265,700,l)
);
},
{
closed = 1;
nodes = (
(165,700,l),
(165,255,l),
(15,255,l),
(15,700,l)
);
}
);
width = 435;
}
);
metricLeft = "=O*.75";
metricRight = O;
unicode = 74;
},
{
glyphname = K;
lastChange = "2025-02-16 21:32:00 +0000";
layers = (
{
background = {
shapes = (
{
closed = 1;
nodes = (
(445,700,l),
(305,700,l),
(145,350,l),
(285,350,l)
);
},
{
closed = 1;
nodes = (
(25,0,l),
(175,0,l),
(175,700,l),
(25,700,l)
);
},
{
closed = 1;
nodes = (
(145,350,l),
(305,0,l),
(445,0,l),
(285,350,l)
);
}
);
};
backgroundImage = {
crop = (41.136,283.864,136.364,227.273);
imagePath = "png/KLMN.png";
locked = 1;
pos = (-236,-1449);
scale = (4.4,4.4);
};
layerId = m01;
shapes = (
{
closed = 1;
nodes = (
(445,700,l),
(305,700,l),
(145,350,l),
(285,350,l)
);
},
{
closed = 1;
nodes = (
(25,0,l),
(175,0,l),
(175,700,l),
(25,700,l)
);
},
{
closed = 1;
nodes = (
(145,350,l),
(305,0,l),
(445,0,l),
(285,350,l)
);
}
);
width = 455;
}
);
metricLeft = H;
metricRight = "=O*.5";
unicode = 75;
},
{
glyphname = L;
lastChange = "2025-02-16 21:32:32 +0000";
layers = (
{
background = {
shapes = (
{
closed = 1;
nodes = (
(25,0,l),
(175,0,l),
(175,700,l),
(25,700,l)
);
},
{
closed = 1;
nodes = (
(175,0,l),
(315,0,l),
(315,110,l),
(175,110,l)
);
}
);
};
backgroundImage = {
crop = (147.955,283.864,136.364,227.273);
imagePath = "png/KLMN.png";
locked = 1;
pos = (-780,-1449);
scale = (4.4,4.4);
};
layerId = m01;
shapes = (
{
closed = 1;
nodes = (
(25,0,l),
(175,0,l),
(175,700,l),
(25,700,l)
);
},
{
closed = 1;
nodes = (
(175,0,l),
(315,0,l),
(315,110,l),
(175,110,l)
);
}
);
width = 335;
}
);
metricLeft = H;
metricRight = "=O";
unicode = 76;
},
{
glyphname = M;
lastChange = "2025-02-16 22:10:14 +0000";
layers = (
{
background = {
shapes = (
{
closed = 1;
nodes = (
(349,0,l),
(235,700,l),
(113,700,l),
(229,0,l)
);
},
{
closed = 1;
nodes = (
(25,0,l),
(175,0,l),
(175,700,l),
(25,700,l)
);
},
{
closed = 1;
nodes = (
(481,700,l),
(353,700,l),
(229,0,l),
(359,0,l)
);
},
{
closed = 1;
nodes = (
(418,700,l),
(413,0,l),
(563,0,l),
(563,700,l)
);
}
);
};
backgroundImage = {
crop = (269.091,283.864,136.364,227.273);
imagePath = "png/KLMN.png";
pos = (-1184,-1449);
scale = (4.4,4.4);
};
layerId = m01;
shapes = (
{
closed = 1;
nodes = (
(369,0,l),
(235,700,l),
(95,700,l),
(219,0,l)
);
},
{
closed = 1;
nodes = (
(25,0,l),
(175,0,l),
(175,700,l),
(25,700,l)
);
},
{
closed = 1;
nodes = (
(493,700,l),
(353,700,l),
(219,0,l),
(369,0,l)
);
},
{
closed = 1;
nodes = (
(413,700,l),
(413,0,l),
(563,0,l),
(563,700,l)
);
},
{
closed = 0;
nodes = (
(235,700,l)
);
}
);
width = 588;
}
);
metricLeft = H;
metricRight = H;
metricWidth = 638N;
unicode = 77;
},
{
glyphname = N;
lastChange = "2025-02-13 20:29:10 +0000";
layers = (
{
backgroundImage = {
crop = (425.455,283.864,136.364,227.273);
imagePath = "png/KLMN.png";
pos = (-1946,-1449);
scale = (4.4,4.4);
};
layerId = m01;
shapes = (
{
closed = 1;
nodes = (
(407,0,l),
(175,700,l),
(33,700,l),
(275,0,l)
);
},
{
closed = 1;
nodes = (
(25,0,l),
(175,0,l),
(175,700,l),
(25,700,l)
);
},
{
closed = 1;
nodes = (
(275,0,l),
(425,0,l),
(425,700,l),
(275,700,l)
);
}
);
width = 450;
}
);
metricLeft = H;
metricRight = H;
unicode = 78;
},
{
glyphname = O;
lastChange = "2025-02-13 20:28:33 +0000";
layers = (
{
backgroundImage = {
crop = (15.87,300.217,130.435,217.391);
imagePath = "png/OPQRS.png";
locked = 1;
pos = (-103,-1581);
scale = (4.6,4.6);
};
hints = (
{
name = _corner.ROUND;
origin = (0,1);
type = Corner;
},
{
name = _corner.ROUND;
origin = (0,2);
type = Corner;
},
{
name = _corner.ROUND;
origin = (1,0);
scale = (0.3,0.3);
type = Corner;
},
{
name = _corner.ROUND;
options = 2;
origin = (1,3);
scale = (-0.3,0.3);
type = Corner;
},
{
name = _corner.ROUND;
origin = (1,1);
scale = (0.3,0.3);
type = Corner;
},
{
name = _corner.ROUND;
options = 2;
origin = (1,2);
scale = (-0.3,0.3);
type = Corner;
},
{
name = _corner.ROUND;
origin = (0,3);
type = Corner;
},
{
name = _corner.ROUND;
origin = (0,0);
type = Corner;
}
);
layerId = m01;
shapes = (
{
closed = 1;
nodes = (
(20,0,l),
(420,0,l),
(420,700,l),
(20,700,l)
);
},
{
closed = 1;
nodes = (
(270,110,l),
(170,110,l),
(170,590,l),
(270,590,l)
);
}
);
width = 440;
}
);
unicode = 79;
},
{
glyphname = P;
lastChange = "2025-02-16 21:37:22 +0000";
layers = (
{
background = {
hints = (
{
name = _corner.BASE;
scale = (0.8,0.8);
type = Corner;
},
{
name = _corner.BASE;
scale = (1.08,1.08);
type = Corner;
},
{
name = _corner.BASE;
scale = (0.3,0.3);
type = Corner;
},
{
name = _corner.BASE;
options = 2;
scale = (-0.3,0.3);
type = Corner;
},
{
name = _corner.BASE;
scale = (0.8,0.8);
type = Corner;
},
{
name = _corner.BASE;
options = 2;
scale = (-0.3,0.3);
type = Corner;
},
{
name = _corner.BASE;
origin = (0,1);
scale = (1.08,1.08);
type = Corner;
},
{
name = _corner.BASE;
origin = (0,2);
scale = (1.08,1.08);
type = Corner;
},
{
name = _corner.BASE;
origin = (1,0);
scale = (0.3,0.3);
type = Corner;
},
{
name = _corner.BASE;
options = 2;
origin = (1,3);
scale = (-0.3,0.3);
type = Corner;
}
);
shapes = (
{
closed = 1;
nodes = (
(25,295,l),
(425,295,l),
(425,700,l),
(25,700,l)
);
},
{
closed = 1;
nodes = (
(275,405,l),
(175,405,l),
(175,590,l),
(275,590,l)
);
},
{
closed = 1;
nodes = (
(25,0,l),
(175,0,l),
(175,295,l),
(25,295,l)
);
}
);
};
backgroundImage = {
crop = (124.565,298.043,130.435,217.391);
imagePath = "png/OPQRS.png";
pos = (-650,-1571);
scale = (4.6,4.6);
};
hints = (
{
name = _corner.ROUND;
origin = (0,1);
scale = (1.08,1.08);
type = Corner;
},
{
name = _corner.ROUND;
origin = (0,2);
scale = (1.08,1.08);
type = Corner;
},
{
name = _corner.ROUND;
origin = (1,0);
scale = (0.3,0.3);
type = Corner;
},
{
name = _corner.ROUND;
options = 2;
origin = (1,3);
scale = (-0.3,0.3);
type = Corner;
}
);
layerId = m01;
shapes = (
{
closed = 1;
nodes = (
(25,295,l),
(425,295,l),
(425,700,l),
(25,700,l)
);
},
{
closed = 1;
nodes = (
(275,405,l),
(175,405,l),
(175,590,l),
(275,590,l)
);
},
{
closed = 1;
nodes = (
(25,0,l),
(175,0,l),
(175,295,l),
(25,295,l)
);
}
);
width = 440;
}
);
metricLeft = H;
metricRight = "=O*.75";
unicode = 80;
},
{
glyphname = Q;
lastChange = "2025-02-13 20:29:10 +0000";
layers = (
{
background = {
hints = (
{
name = _corner.BASE;
origin = (0,0);
type = Corner;
},
{
name = _corner.BASE;
origin = (0,1);
type = Corner;
},
{
name = _corner.BASE;
origin = (0,2);
type = Corner;
},
{
name = _corner.BASE;
origin = (0,3);
type = Corner;
},
{
name = _corner.BASE;
origin = (1,0);
scale = (0.3,0.3);
type = Corner;
},
{
name = _corner.BASE;
origin = (1,1);
scale = (0.3,0.3);
type = Corner;
},
{
name = _corner.BASE;
options = 2;
origin = (1,2);
scale = (-0.3,0.3);
type = Corner;
},
{
name = _corner.BASE;
options = 2;
origin = (1,3);
scale = (-0.3,0.3);
type = Corner;
}
);
shapes = (
{
closed = 1;
nodes = (
(20,0,l),
(420,0,l),
(420,700,l),
(20,700,l)
);
},
{
closed = 1;
nodes = (
(270,110,l),
(170,110,l),
(170,590,l),
(270,590,l)
);
},
{
closed = 1;
nodes = (
(384,-44,l),
(462,34,l),
(384,112,l),
(306,34,l)
);
}
);
};
backgroundImage = {
crop = (241.957,298.043,130.435,217.391);
imagePath = "png/OPQRS.png";
pos = (-1195,-1571);
scale = (4.6,4.6);
};
hints = (
{
name = _corner.ROUND;
origin = (0,0);
type = Corner;
},
{
name = _corner.ROUND;
origin = (0,1);
type = Corner;
},
{
name = _corner.ROUND;
origin = (0,2);
type = Corner;
},
{
name = _corner.ROUND;
origin = (0,3);
type = Corner;
},
{
name = _corner.ROUND;
origin = (1,0);
scale = (0.3,0.3);
type = Corner;
},
{
name = _corner.ROUND;
origin = (1,1);
scale = (0.3,0.3);
type = Corner;
},
{
name = _corner.ROUND;
options = 2;
origin = (1,2);
scale = (-0.3,0.3);
type = Corner;
},
{
name = _corner.ROUND;
options = 2;
origin = (1,3);
scale = (-0.3,0.3);
type = Corner;
}
);
layerId = m01;
shapes = (
{
closed = 1;
nodes = (
(20,0,l),
(420,0,l),
(420,700,l),
(20,700,l)
);
},
{
closed = 1;
nodes = (
(270,110,l),
(170,110,l),
(170,590,l),
(270,590,l)
);
},
{
closed = 1;
nodes = (
(384,-44,l),
(462,34,l),
(384,112,l),
(306,34,l)
);
}
);
width = 467;
}
);
metricLeft = O;
metricRight = "=O*.25";
unicode = 81;
},
{
glyphname = R;
lastChange = "2025-02-13 20:29:10 +0000";
layers = (
{
backgroundImage = {
crop = (355,295.87,130.435,217.391);
imagePath = "png/OPQRS.png";
locked = 1;
pos = (-1710,-1561);
scale = (4.6,4.6);
};
hints = (
{
name = _corner.ROUND;
origin = (0,1);
scale = (0.8,0.8);
type = Corner;
},
{
name = _corner.ROUND;
origin = (0,2);
scale = (1.08,1.08);
type = Corner;
},
{
name = _corner.ROUND;
origin = (1,0);
scale = (0.3,0.3);
type = Corner;
},
{
name = _corner.ROUND;
options = 2;
origin = (1,3);
scale = (-0.3,0.3);
type = Corner;
},
{
name = _corner.ROUND;
origin = (2,2);
scale = (0.8,0.8);
type = Corner;
},
{
name = _corner.ROUND;
options = 2;
origin = (3,3);
scale = (-0.3,0.3);
type = Corner;
}
);
layerId = m01;
shapes = (
{
closed = 1;
nodes = (
(25,340,l),
(425,340,l),
(425,700,l),
(25,700,l)
);
},
{
closed = 1;
nodes = (
(275,405,l),
(175,405,l),
(175,590,l),
(275,590,l)
);
},
{
closed = 1;
nodes = (
(25,0,l),
(425,0,l),
(425,360,l),
(25,360,l)
);
},
{
closed = 1;
nodes = (
(275,0,l),
(175,0,l),
(175,295,l),
(275,295,l)
);
}
);
width = 445;
}
);
metricLeft = H;
metricRight = O;
unicode = 82;
},
{
glyphname = S;
lastChange = "2025-02-13 20:29:10 +0000";
layers = (
{
background = {
hints = (
{
name = _corner.ROUND;
type = Corner;
},
{
name = _corner.ROUND;
scale = (0.3,0.3);
type = Corner;
},
{
name = _corner.ROUND;
options = 2;
scale = (-0.3,0.3);
type = Corner;
},
{
name = _corner.ROUND;
scale = (1.08,1.08);
type = Corner;
},
{
name = _corner.ROUND;
type = Corner;
},
{
name = _corner.ROUND;
options = 1;
scale = (0.5,0.5);
type = Corner;
},
{
name = _corner.ROUND;
type = Corner;
},
{
name = _corner.ROUND;
options = 2;
scale = (-0.3,0.3);
type = Corner;
},
{
name = _corner.ROUND;
scale = (0.3,0.3);
type = Corner;
},
{
name = _corner.ROUND;
type = Corner;
},
{
name = _corner.ROUND;
scale = (1.08,1.08);
type = Corner;
},
{
name = _corner.ROUND;
options = 1;
scale = (0.5,0.5);
type = Corner;
},
{
name = _corner.ROUND;
type = Corner;
},
{
name = _corner.ROUND;
scale = (0.3,0.3);
type = Corner;
},
{
name = _corner.ROUND;
options = 2;
scale = (-0.3,0.3);
type = Corner;
},
{
name = _corner.ROUND;
scale = (1.08,1.08);
type = Corner;
},
{
name = _corner.ROUND;
type = Corner;
},
{
name = _corner.ROUND;
options = 1;
scale = (0.5,0.5);
type = Corner;
},
{
name = _corner.ROUND;
type = Corner;
},
{
name = _corner.ROUND;
options = 2;
scale = (-0.3,0.3);
type = Corner;
},
{
name = _corner.ROUND;
scale = (0.3,0.3);
type = Corner;
},
{
name = _corner.ROUND;
type = Corner;
},
{
name = _corner.ROUND;
scale = (1.08,1.08);
type = Corner;
},
{
name = _corner.ROUND;
options = 1;
scale = (0.5,0.5);
type = Corner;
},
{
name = _corner.ROUND;
scale = (0.3,0.3);
type = Corner;
},
{
name = _corner.ROUND;
options = 2;
scale = (-0.3,0.3);
type = Corner;
},
{
name = _corner.ROUND;
scale = (1.08,1.08);
type = Corner;
},
{
name = _corner.ROUND;
type = Corner;
},
{
name = _corner.ROUND;
options = 2;
scale = (-0.3,0.3);
type = Corner;
},
{
name = _corner.ROUND;
scale = (0.3,0.3);
type = Corner;
},
{
name = _corner.ROUND;
type = Corner;
},
{
name = _corner.ROUND;
scale = (1.08,1.08);
type = Corner;
},
{
name = _corner.ROUND;
scale = (0.3,0.3);
type = Corner;
},
{
name = _corner.ROUND;
options = 2;
scale = (-0.3,0.3);
type = Corner;
},
{
name = _corner.ROUND;
scale = (1.08,1.08);
type = Corner;
},
{
name = _corner.ROUND;
type = Corner;
},
{
name = _corner.ROUND;
options = 2;
scale = (-0.3,0.3);
type = Corner;
},
{
name = _corner.ROUND;
scale = (0.3,0.3);
type = Corner;
},
{
name = _corner.ROUND;
type = Corner;
},
{
name = _corner.ROUND;
scale = (1.08,1.08);
type = Corner;
}
);
shapes = (
{
closed = 0;
nodes = (
(270,185,l)
);
}
);
};
backgroundImage = {
crop = (470.217,292.826,123.783,217.391);
imagePath = "png/OPQRS.png";
locked = 1;
pos = (-2245,-1547);
scale = (4.6,4.6);
};
hints = (
{
name = _corner.ROUND;
origin = (0,6);
scale = (1.08,1.08);
type = Corner;
},
{
name = _corner.ROUND;
origin = (0,7);
type = Corner;
},
{
name = _corner.ROUND;
origin = (0,2);
scale = (0.3,0.3);
type = Corner;
},
{
name = _corner.ROUND;
options = 2;
origin = (0,3);
scale = (-0.3,0.3);
type = Corner;
},
{
name = _corner.ROUND;
origin = (0,13);
scale = (0.3,0.3);
type = Corner;
},
{
name = _corner.ROUND;
options = 2;
origin = (0,12);
scale = (-0.3,0.3);
type = Corner;
},
{
name = _corner.ROUND;
origin = (0,17);
scale = (1.08,1.08);
type = Corner;
},
{
name = _corner.ROUND;
origin = (0,16);
type = Corner;
}
);
layerId = m01;
shapes = (
{
closed = 1;
nodes = (
(169,419,o),
(170,515,c),
(170,590,l),
(270,590,l),
(270,485,l),
(420,485,l),
(420,700,l),
(20,700,l),
(20,495,l),
(20,321,o),
(271,295,o),
(270,185,c),
(270,110,l),
(170,110,l),
(170,215,l),
(20,215,l),
(20,0,l),
(420,0,l),
(420,205,l),
(420,386,o)
);
}
);
width = 440;
}
);
metricLeft = O;
metricRight = O;
unicode = 83;
},
{
glyphname = T;
lastChange = "2025-02-16 21:11:55 +0000";
layers = (
{
background = {
shapes = (
{
closed = 1;
nodes = (
(300,590,l),
(440,590,l),
(441,700,l),
(300,700,l)
);
},
{
closed = 1;
nodes = (
(150,0,l),
(300,0,l),
(300,700,l),
(150,700,l)
);
},
{
closed = 1;
nodes = (
(10,590,l),
(150,590,l),
(150,700,l),
(9,700,l)
);
}
);
};
backgroundImage = {
crop = (0,275.181,130.12,240.964);
imagePath = "png/TUVW.png";
pos = (-15,-1342);
scale = (4.15,4.15);
};
layerId = m01;
shapes = (
{
closed = 1;
nodes = (
(150,0,l),
(300,0,l),
(300,700,l),
(150,700,l)
);
},
{
closed = 1;
nodes = (
(300,590,l),
(440,590,l),
(440,700,l),
(300,700,l)
);
},
{
closed = 1;
nodes = (
(10,590,l),
(150,590,l),
(150,700,l),
(10,700,l)
);
}
);
width = 450;
}
);
metricLeft = "=O*.5";
metricRight = "=O*.5";
unicode = 84;
},
{
glyphname = U;
lastChange = "2025-02-13 20:29:10 +0000";
layers = (
{
backgroundImage = {
crop = (113.253,275.181,144.578,240.964);
imagePath = "png/TUVW.png";
pos = (-552,-1342);
scale = (4.15,4.15);
};
hints = (
{
name = _corner.ROUND;
origin = (0,0);
type = Corner;
},
{
name = _corner.ROUND;
origin = (0,1);
type = Corner;
},
{
name = _corner.ROUND;
origin = (1,0);
scale = (0.3,0.3);
type = Corner;
},
{
name = _corner.ROUND;
origin = (1,1);
scale = (0.3,0.3);
type = Corner;
}
);
layerId = m01;
shapes = (
{
closed = 1;
nodes = (
(20,0,l),
(420,0,l),
(420,700,l),
(20,700,l)
);
},
{
closed = 1;
nodes = (
(270,110,l),
(170,110,l),
(170,700,l),
(270,700,l)
);
}
);
width = 440;
}
);
metricLeft = O;
metricRight = O;
unicode = 85;
},
{
glyphname = V;
lastChange = "2025-02-13 20:29:10 +0000";
layers = (
{
background = {
shapes = (
{
closed = 1;
nodes = (
(264,0,l),
(150,700,l),
(10,700,l),
(134,0,l)
);
},
{
closed = 1;
nodes = (
(460,700,l),
(320,700,l),
(206,0,l),
(336,0,l)
);
}
);
};
backgroundImage = {
crop = (240.964,275.181,144.578,240.964);
imagePath = "png/TUVW.png";
locked = 1;
pos = (-1065,-1342);
scale = (4.15,4.15);
};
layerId = m01;
shapes = (
{
closed = 1;
nodes = (
(264,0,l),
(150,700,l),
(10,700,l),
(134,0,l)
);
},
{
closed = 1;
nodes = (
(460,700,l),
(320,700,l),
(206,0,l),
(336,0,l)
);
}
);
width = 470;
}
);
metricLeft = "=O*.5";
metricRight = "=O*.5";
unicode = 86;
},
{
glyphname = W;
lastChange = "2025-02-16 22:17:13 +0000";
layers = (
{
background = {
shapes = (
{
closed = 1;
nodes = (
(274,0,l),
(160,700,l),
(10,700,l),
(134,0,l)
);
},
{
closed = 1;
nodes = (
(460,700,l),
(320,700,l),
(196,0,l),
(336,0,l)
);
},
{
closed = 1;
nodes = (
(584,0,l),
(460,700,l),
(320,700,l),
(444,0,l)
);
},
{
closed = 1;
nodes = (
(770,700,l),
(630,700,l),
(506,0,l),
(646,0,l)
);
},
{
closed = 1;
nodes = (
(264,0,l),
(150,700,l),
(10,700,l),
(134,0,l)
);
},
{
closed = 1;
nodes = (
(460,700,l),
(320,700,l),
(206,0,l),
(336,0,l)
);
},
{
closed = 1;
nodes = (
(574,0,l),
(460,700,l),
(320,700,l),
(444,0,l)
);
},
{
closed = 1;
nodes = (
(770,700,l),
(630,700,l),
(516,0,l),
(646,0,l)
);
},
{
closed = 1;
nodes = (
(264,0,l),
(150,700,l),
(10,700,l),
(134,0,l)
);
},
{
closed = 1;
nodes = (
(460,700,l),
(320,700,l),
(206,0,l),
(336,0,l)
);
},
{
closed = 1;
nodes = (
(574,0,l),
(460,700,l),
(320,700,l),
(444,0,l)
);
},
{
closed = 1;
nodes = (
(770,700,l),
(630,700,l),
(516,0,l),
(646,0,l)
);
},
{
closed = 1;
nodes = (
(264,0,l),
(150,700,l),
(10,700,l),
(134,0,l)
);
},
{
closed = 1;
nodes = (
(460,700,l),
(320,700,l),
(206,0,l),
(336,0,l)
);
},
{
closed = 1;
nodes = (
(574,0,l),
(460,700,l),
(320,700,l),
(444,0,l)
);
},
{
closed = 1;
nodes = (
(770,700,l),
(630,700,l),
(516,0,l),
(646,0,l)
);
}
);
};
backgroundImage = {
crop = (407.229,275.181,144.578,240.964);
imagePath = "png/TUVW.png";
pos = (-1600,-1342);
scale = (4.15,4.15);
};
layerId = m01;
shapes = (
{
closed = 1;
nodes = (
(264,0,l),
(150,700,l),
(10,700,l),
(134,0,l)
);
},
{
closed = 1;
nodes = (
(460,700,l),
(320,700,l),
(206,0,l),
(336,0,l)
);
},
{
closed = 1;
nodes = (
(574,0,l),
(460,700,l),
(320,700,l),
(444,0,l)
);
},
{
closed = 1;
nodes = (
(770,700,l),
(630,700,l),
(516,0,l),
(646,0,l)
);
}
);
width = 780;
}
);
metricLeft = "=O*.5";
metricRight = "=O*.5";
unicode = 87;
},
{
glyphname = X;
lastChange = "2025-02-16 22:11:11 +0000";
layers = (
{
background = {
shapes = (
{
closed = 1;
nodes = (
(410,0,l),
(150,700,l),
(10,700,l),
(270,0,l)
);
},
{
closed = 1;
nodes = (
(410,700,l),
(270,700,l),
(10,0,l),
(150,0,l)
);
}
);
};
backgroundImage = {
crop = (106.591,285.227,136.364,227.273);
imagePath = "png/XYZ.png";
pos = (-559,-1455);
scale = (4.4,4.4);
};
layerId = m01;
shapes = (
{
closed = 1;
nodes = (
(410,0,l),
(150,700,l),
(10,700,l),
(270,0,l)
);
},
{
closed = 1;
nodes = (
(410,700,l),
(270,700,l),
(10,0,l),
(150,0,l)
);
}
);
width = 420;
}
);
metricLeft = "=O*0.5";
metricRight = "=O*.5";
unicode = 88;
},
{
glyphname = Y;
lastChange = "2025-02-13 20:29:10 +0000";
layers = (
{
background = {
shapes = (
{
closed = 1;
nodes = (
(280,350,l),
(150,700,l),
(10,700,l),
(140,350,l)
);
},
{
closed = 1;
nodes = (
(410,700,l),
(270,700,l),
(140,350,l),
(280,350,l)
);
},
{
closed = 1;
nodes = (
(140,0,l),
(280,0,l),
(280,350,l),
(140,350,l)
);
}
);
};
backgroundImage = {
crop = (245.227,282.955,136.364,227.273);
imagePath = "png/XYZ.png";
pos = (-1169,-1445);
scale = (4.4,4.4);
};
layerId = m01;
shapes = (
{
closed = 1;
nodes = (
(280,350,l),
(150,700,l),
(10,700,l),
(140,350,l)
);
},
{
closed = 1;
nodes = (
(410,700,l),
(270,700,l),
(140,350,l),
(280,350,l)
);
},
{
closed = 1;
nodes = (
(140,0,l),
(280,0,l),
(280,350,l),
(140,350,l)
);
}
);
width = 420;
}
);
metricLeft = "=O*.5";
metricRight = "=O*.5";
unicode = 89;
},
{
glyphname = Z;
lastChange = "2025-02-17 00:37:03 +0000";
layers = (
{
background = {
shapes = (
{
closed = 0;
nodes = (
(415,700,l)
);
}
);
};
backgroundImage = {
crop = (372.5,280.682,136.364,227.273);
imagePath = "png/XYZ.png";
pos = (-1724,-1435);
scale = (4.4,4.4);
};
layerId = m01;
shapes = (
{
closed = 1;
nodes = (
(415,560,l),
(265,560,l),
(15,140,l),
(165,140,l)
);
},
{
closed = 1;
nodes = (
(15,560,l),
(415,560,l),
(415,700,l),
(15,700,l)
);
},
{
closed = 1;
nodes = (
(15,0,l),
(415,0,l),
(415,140,l),
(15,140,l)
);
}
);
width = 430;
}
);
metricLeft = "=O*.75";
metricRight = "=O*.75";
unicode = 90;
},
{
glyphname = a;
lastChange = "2025-02-13 18:02:25 +0000";
layers = (
{
anchors = (
{
name = bottom;
pos = (300,0);
},
{
name = center;
pos = (150,175);
},
{
name = top;
pos = (300,700);
}
);
hints = (
{
name = _corner.ROUND;
origin = (0,9);
scale = (1.08,1.08);
type = Corner;
},
{
name = _corner.ROUND;
origin = (1,0);
scale = (0.3,0.3);
type = Corner;
},
{
name = _corner.ROUND;
options = 2;
origin = (1,3);
scale = (-0.3,0.3);
type = Corner;
},
{
name = _corner.ROUND;
origin = (0,1);
scale = (1.08,1.08);
type = Corner;
},
{
name = _corner.ROUND;
origin = (2,0);
scale = (0.3,0.3);
type = Corner;
},
{
name = _corner.ROUND;
options = 2;
origin = (2,3);
scale = (-0.3,0.3);
type = Corner;
}
);
layerId = m01;
shapes = (
{
closed = 1;
nodes = (
(102,0,l),
(502,0,l),
(502,249,ls),
(502,294,o),
(476,332,o),
(436,350,c),
(475,368,o),
(502,407,o),
(502,453,cs),
(502,700,l),
(102,700,l)
);
},
{
closed = 1;
nodes = (
(352,405,l),
(252,405,l),
(252,590,l),
(352,590,l)
);
},
{
closed = 1;
nodes = (
(352,110,l),
(252,110,l),
(252,295,l),
(352,295,l)
);
}
);
width = 600;
}
);
unicode = 97;
},
{
glyphname = b;
lastChange = "2025-02-17 15:49:56 +0000";
layers = (
{
background = {
hints = (
{
name = _corner.BASE;
origin = (0,0);
type = Corner;
},
{
name = _corner.BASE;
origin = (0,1);
scale = (1.08,1.08);
type = Corner;
},
{
name = _corner.BASE;
origin = (0,2);
scale = (1.08,1.08);
type = Corner;
},
{
name = _corner.BASE;
origin = (0,3);
type = Corner;
},
{
name = _corner.BASE;
origin = (1,0);
scale = (0.3,0.3);
type = Corner;
},
{
name = _corner.BASE;
options = 2;
origin = (1,1);
scale = (-0.3,0.3);
type = Corner;
},
{
name = _corner.BASE;
origin = (1,2);
scale = (0.3,0.3);
type = Corner;
},
{
name = _corner.BASE;
options = 2;
origin = (1,3);
scale = (-0.3,0.3);
type = Corner;
}
);
shapes = (
{
closed = 1;
nodes = (
(20,0,l),
(420,0,l),
(420,700,l),
(20,700,l)
);
},
{
closed = 1;
nodes = (
(270,110,l),
(170,110,l),
(170,590,l),
(270,590,l)
);
},
{
closed = 1;
nodes = (
(420,445,l),
(420,255,l),
(270,255,l),
(270,445,l)
);
}
);
};
hints = (
{
name = _corner.ROUND;
origin = (0,0);
type = Corner;
},
{
name = _corner.ROUND;
origin = (0,1);
scale = (1.08,1.08);
type = Corner;
},
{
name = _corner.ROUND;
origin = (0,2);
scale = (1.08,1.08);
type = Corner;
},
{
name = _corner.ROUND;
origin = (0,3);
type = Corner;
},
{
name = _corner.ROUND;
origin = (1,0);
scale = (0.3,0.3);
type = Corner;
},
{
name = _corner.ROUND;
options = 2;
origin = (1,1);
scale = (-0.3,0.3);
type = Corner;
},
{
name = _corner.ROUND;
origin = (1,2);
scale = (0.3,0.3);
type = Corner;
},
{
name = _corner.ROUND;
options = 2;
origin = (1,3);
scale = (-0.3,0.3);
type = Corner;
}
);
layerId = m01;
shapes = (
{
closed = 1;
nodes = (
(20,0,l),
(420,0,l),
(420,700,l),
(20,700,l)
);
},
{
closed = 1;
nodes = (
(270,50,l),
(170,50,l),
(170,650,l),
(270,650,l)
);
},
{
closed = 1;
nodes = (
(420,445,l),
(420,255,l),
(270,255,l),
(270,445,l)
);
}
);
width = 440;
}
);
metricLeft = "=O";
metricRight = "=O";
unicode = 98;
},
{
glyphname = c;
lastChange = "2025-02-12 22:47:37 +0000";
layers = (
{
layerId = m01;
shapes = (
{
closed = 1;
nodes = (
(242,106,o),
(258,66,o),
(302,66,cs),
(346,66,o),
(362,106,o),
(362,153,cs),
(362,236,l),
(492,236,l),
(492,138,ls),
(492,54,o),
(442,0,o),
(346,0,cs),
(242,0,ls),
(166,0,o),
(112,58,o),
(112,120,cs),
(112,580,ls),
(112,642,o),
(166,700,o),
(242,700,cs),
(346,700,ls),
(436,700,o),
(492,640,o),
(492,562,cs),
(492,464,l),
(362,464,l),
(362,547,ls),
(362,594,o),
(346,634,o),
(302,634,cs),
(258,634,o),
(242,594,o),
(242,547,cs),
(242,153,ls)
);
}
);
width = 600;
}
);
unicode = 99;
},
{
glyphname = d;
lastChange = "2025-02-12 22:48:55 +0000";
layers = (
{
layerId = m01;
shapes = (
{
closed = 1;
nodes = (
(252,87,o),
(269,70,o),
(302,70,cs),
(335,70,o),
(352,87,o),
(352,120,cs),
(352,276,l),
(502,276,l),
(502,156,ls),
(502,59,o),
(443,0,o),
(346,0,cs),
(242,0,ls),
(165,0,o),
(102,63,o),
(102,140,cs),
(102,560,ls),
(102,637,o),
(165,700,o),
(242,700,cs),
(346,700,ls),
(437,700,o),
(502,635,o),
(502,544,cs),
(502,424,l),
(352,424,l),
(352,580,ls),
(352,613,o),
(335,630,o),
(302,630,cs),
(269,630,o),
(252,613,o),
(252,580,cs),
(252,120,ls)
);
}
);
width = 600;
}
);
unicode = 100;
},
{
glyphname = e;
lastChange = "2025-02-13 18:02:25 +0000";
layers = (
{
hints = (
{
name = _corner.ROUND;
origin = (0,4);
type = Corner;
},
{
name = _corner.ROUND;
origin = (0,5);
scale = (1.08,1.08);
type = Corner;
},
{
name = _corner.ROUND;
origin = (0,0);
scale = (0.5,0.5);
type = Corner;
},
{
name = _corner.ROUND;
options = 2;
origin = (0,1);
scale = (-0.3,0.3);
type = Corner;
}
);
layerId = m01;
shapes = (
{
closed = 1;
nodes = (
(377,79,l),
(227,79,l),
(227,224,l),
(127,224,l),
(127,-1,l),
(477,-1,l),
(477,700,l),
(377,700,l)
);
}
);
width = 600;
}
);
unicode = 101;
},
{
glyphname = f;
lastChange = "2025-02-13 18:02:25 +0000";
layers = (
{
hints = (
{
name = _corner.ROUND;
origin = (0,1);
scale = (1.08,1.08);
type = Corner;
},
{
name = _corner.ROUND;
origin = (0,9);
scale = (1.08,1.08);
type = Corner;
},
{
name = _corner.ROUND;
origin = (1,0);
scale = (0.3,0.3);
type = Corner;
},
{
name = _corner.ROUND;
options = 2;
origin = (1,3);
scale = (-0.3,0.3);
type = Corner;
},
{
name = _corner.ROUND;
origin = (2,0);
scale = (0.3,0.3);
type = Corner;
},
{
name = _corner.ROUND;
options = 2;
origin = (2,3);
scale = (-0.3,0.3);
type = Corner;
}
);
layerId = m01;
shapes = (
{
closed = 1;
nodes = (
(102,0,l),
(502,0,l),
(502,249,ls),
(502,294,o),
(476,332,o),
(436,350,c),
(475,368,o),
(502,407,o),
(502,453,cs),
(502,700,l),
(102,700,l)
);
},
{
closed = 1;
nodes = (
(352,385,l),
(252,385,l),
(252,630,l),
(352,630,l)
);
},
{
closed = 1;
nodes = (
(352,70,l),
(252,70,l),
(252,315,l),
(352,315,l)
);
}
);
width = 600;
}
);
unicode = 102;
},
{
glyphname = g;
lastChange = "2025-02-13 18:12:19 +0000";
layers = (
{
layerId = m01;
shapes = (
{
closed = 1;
nodes = (
(502,156,ls),
(502,59,o),
(443,0,o),
(346,0,cs),
(242,0,ls),
(165,0,o),
(102,64,o),
(102,140,cs),
(102,226,l),
(252,226,l),
(252,190,ls),
(252,157,o),
(269,140,o),
(302,140,cs),
(335,140,o),
(352,157,o),
(352,190,cs),
(352,226,l),
(102,404,l),
(102,560,ls),
(102,637,o),
(165,700,o),
(242,700,cs),
(346,700,ls),
(437,700,o),
(502,635,o),
(502,544,cs),
(502,474,l),
(352,474,l),
(352,510,ls),
(352,543,o),
(335,560,o),
(302,560,cs),
(269,560,o),
(252,543,o),
(252,510,cs),
(252,450,l),
(502,226,l)
);
}
);
width = 600;
}
);
unicode = 103;
},
{
glyphname = h;
lastChange = "2025-02-13 18:39:17 +0000";
layers = (
{
hints = (
{
name = _corner.ROUND;
origin = (0,2);
scale = (0.3,0.3);
type = Corner;
},
{
name = _corner.ROUND;
options = 2;
origin = (0,3);
scale = (-0.3,0.3);
type = Corner;
},
{
name = _corner.ROUND;
origin = (0,6);
scale = (1.08,1.08);
type = Corner;
},
{
name = _corner.ROUND;
origin = (0,7);
type = Corner;
},
{
name = _corner.ROUND;
options = 2;
origin = (0,12);
scale = (-0.3,0.3);
type = Corner;
},
{
name = _corner.ROUND;
origin = (0,13);
scale = (0.3,0.3);
type = Corner;
},
{
name = _corner.ROUND;
origin = (0,16);
type = Corner;
},
{
name = _corner.ROUND;
origin = (0,17);
scale = (1.08,1.08);
type = Corner;
}
);
layerId = m01;
shapes = (
{
closed = 1;
nodes = (
(251,409,o),
(252,505,c),
(252,630,l),
(352,630,l),
(352,485,l),
(502,485,l),
(502,700,l),
(102,700,l),
(102,495,l),
(102,321,o),
(353,293,o),
(352,183,c),
(352,70,l),
(252,70,l),
(252,215,l),
(102,215,l),
(102,0,l),
(502,0,l),
(502,193,l),
(502,374,o)
);
}
);
width = 600;
}
);
unicode = 104;
},
{
glyphname = i;
lastChange = "2025-02-13 18:48:40 +0000";
layers = (
{
layerId = m01;
shapes = (
{
closed = 1;
nodes = (
(75,0,l),
(215,0,l),
(239,145,l),
(361,145,l),
(385,0,l),
(525,0,l),
(401,700,l),
(199,700,l)
);
},
{
closed = 1;
nodes = (
(307,566,l),
(293,566,l),
(343,255,l),
(257,255,l)
);
}
);
width = 600;
}
);
unicode = 105;
},
